<svg width="732" height="84" viewBox="0 0 732 84" fill="none" xmlns="http://www.w3.org/2000/svg">
<g filter="url(#filter0_d_2802_42848)">
<rect x="8" y="6" width="447" height="68" rx="34" fill="white" style="fill:white;fill-opacity:1;" shape-rendering="crispEdges"/>
<path d="M88.1094 33.8594C88.1094 34.75 88.3086 35.6016 88.707 36.4141C89.1055 37.2188 89.6836 37.9336 90.4414 38.5586C91.1992 39.1758 92.1016 39.6484 93.1484 39.9766L92.0938 41.7109C90.9141 41.3359 89.8906 40.7734 89.0234 40.0234C88.1641 39.2734 87.5 38.3906 87.0312 37.375C86.5703 38.5391 85.8867 39.5547 84.9805 40.4219C84.0742 41.2812 83 41.9297 81.7578 42.3672L80.6094 40.5859C81.6797 40.2344 82.6094 39.7188 83.3984 39.0391C84.1953 38.3516 84.8047 37.5625 85.2266 36.6719C85.6562 35.7812 85.875 34.8516 85.8828 33.8828V33.2969H81.2656V31.4922H92.6328V33.2969H88.1094V33.8594ZM97.2734 35.1953H100.32V37.0234H97.2734V42.6016H95.0469V29.9922H97.2734V35.1953ZM90.5 43.1172C91.9375 43.1172 93.1797 43.2734 94.2266 43.5859C95.2734 43.8906 96.0742 44.3359 96.6289 44.9219C97.1836 45.5 97.4609 46.1953 97.4609 47.0078C97.4609 47.8281 97.1797 48.5352 96.6172 49.1289C96.0625 49.7227 95.2617 50.1758 94.2148 50.4883C93.1758 50.8008 91.9375 50.9531 90.5 50.9453C89.0469 50.9531 87.7891 50.8008 86.7266 50.4883C85.6719 50.1758 84.8594 49.7227 84.2891 49.1289C83.7266 48.5352 83.4453 47.8281 83.4453 47.0078C83.4453 46.1953 83.7266 45.5 84.2891 44.9219C84.8594 44.3359 85.6719 43.8906 86.7266 43.5859C87.7891 43.2734 89.0469 43.1172 90.5 43.1172ZM90.5 44.875C88.9688 44.875 87.7773 45.0625 86.9258 45.4375C86.082 45.8047 85.6641 46.3281 85.6719 47.0078C85.6641 47.7031 86.082 48.2422 86.9258 48.625C87.7773 49 88.9688 49.1875 90.5 49.1875C92.0156 49.1875 93.1914 49 94.0273 48.625C94.8633 48.25 95.2812 47.7109 95.2812 47.0078C95.2812 46.3281 94.8633 45.8047 94.0273 45.4375C93.1914 45.0625 92.0156 44.875 90.5 44.875ZM117.395 38.125H120.77V40H117.395V50.9922H115.168V29.9922H117.395V38.125ZM104.036 37.1406H109.59V31.75H111.793V46H101.833V31.75H104.036V37.1406ZM109.59 44.1719V38.8984H104.036V44.1719H109.59ZM138.009 33.1562C138.009 34.5078 137.974 35.707 137.903 36.7539C137.841 37.793 137.681 38.9766 137.423 40.3047H140.446V42.1328H131.938V51.0156H129.688V42.1328H121.298V40.3047H135.173C135.454 38.9844 135.63 37.8008 135.7 36.7539C135.77 35.6992 135.806 34.5 135.806 33.1562V33.1328H123.642V31.3047H138.009V33.1562ZM158.998 50.9922H156.771V29.9922H158.998V50.9922ZM145.052 43.7266C148.49 43.7031 151.708 43.3828 154.708 42.7656L155.013 44.6406C153.232 45 151.49 45.2578 149.787 45.4141C148.083 45.5703 146.357 45.6484 144.607 45.6484H142.849V32.0312H145.052V43.7266ZM179.893 50.9922H177.76V29.9922H179.893V50.9922ZM175.627 49.9609H173.494V39.8359H171.127C171.064 41.1953 170.838 42.375 170.447 43.375C170.057 44.375 169.529 45.1445 168.865 45.6836C168.201 46.2148 167.439 46.4766 166.58 46.4688C165.674 46.4766 164.877 46.1797 164.189 45.5781C163.51 44.9766 162.982 44.1172 162.607 43C162.24 41.875 162.057 40.5625 162.057 39.0625C162.057 37.5625 162.24 36.2539 162.607 35.1367C162.982 34.0195 163.51 33.1641 164.189 32.5703C164.877 31.9688 165.674 31.6719 166.58 31.6797C167.424 31.6719 168.174 31.9258 168.83 32.4414C169.486 32.9492 170.01 33.6836 170.4 34.6445C170.799 35.5977 171.037 36.7266 171.115 38.0312H173.494V30.3906H175.627V49.9609ZM166.58 33.7656C166.072 33.7656 165.635 33.9766 165.268 34.3984C164.9 34.8125 164.615 35.418 164.412 36.2148C164.217 37.0039 164.119 37.9531 164.119 39.0625C164.119 40.1719 164.217 41.125 164.412 41.9219C164.615 42.7109 164.9 43.3164 165.268 43.7383C165.635 44.1523 166.072 44.3594 166.58 44.3594C167.096 44.3594 167.541 44.1523 167.916 43.7383C168.291 43.3164 168.58 42.7109 168.783 41.9219C168.986 41.125 169.088 40.1719 169.088 39.0625C169.088 37.9531 168.986 37.0039 168.783 36.2148C168.58 35.418 168.291 34.8125 167.916 34.3984C167.541 33.9766 167.096 33.7656 166.58 33.7656ZM203.964 34.9844H207.011V36.8359H203.964V41.8516H201.737V29.9922H203.964V34.9844ZM197.729 33.1797H190.604V38.9688C192.69 38.9609 194.393 38.9102 195.714 38.8164C197.034 38.7148 198.339 38.5391 199.628 38.2891L199.886 40.0703C198.542 40.3594 197.175 40.5508 195.784 40.6445C194.393 40.7305 192.487 40.7734 190.065 40.7734H188.401V31.375H197.729V33.1797ZM203.964 50.7109H190.558V42.8828H203.964V50.7109ZM192.737 48.9297H201.761V44.6641H192.737V48.9297ZM213.351 31.5625C214.39 31.5625 215.316 31.8633 216.128 32.4648C216.949 33.0664 217.585 33.9258 218.038 35.043C218.499 36.1523 218.734 37.4453 218.742 38.9219C218.734 40.4062 218.499 41.707 218.038 42.8242C217.585 43.9336 216.949 44.793 216.128 45.4023C215.316 46.0039 214.39 46.3047 213.351 46.3047C212.304 46.3047 211.374 46.0039 210.562 45.4023C209.749 44.793 209.113 43.9336 208.652 42.8242C208.199 41.707 207.976 40.4062 207.984 38.9219C207.976 37.4453 208.199 36.1523 208.652 35.043C209.113 33.9336 209.749 33.0781 210.562 32.4766C211.374 31.8672 212.304 31.5625 213.351 31.5625ZM213.351 33.5547C212.71 33.5547 212.144 33.7734 211.652 34.2109C211.167 34.6484 210.788 35.2734 210.515 36.0859C210.249 36.8906 210.117 37.8359 210.117 38.9219C210.117 40.0156 210.249 40.9688 210.515 41.7812C210.788 42.5938 211.167 43.2188 211.652 43.6562C212.144 44.0938 212.71 44.3125 213.351 44.3125C213.999 44.3125 214.57 44.0938 215.062 43.6562C215.554 43.2188 215.933 42.5938 216.199 41.7812C216.472 40.9688 216.609 40.0156 216.609 38.9219C216.609 37.8359 216.472 36.8906 216.199 36.0859C215.933 35.2734 215.554 34.6484 215.062 34.2109C214.57 33.7734 213.999 33.5547 213.351 33.5547ZM224.085 38.2188H227.46V40.0938H224.085V50.9922H221.859V29.9922H224.085V38.2188ZM244.816 39.4844H230.566V31.1875H244.558V32.9922H232.816V37.7266H244.816V39.4844ZM247.183 43.8438H238.605V50.9453H236.426V43.8438H227.965V42.0391H247.183V43.8438ZM265.242 34.0703C265.242 35.25 265.227 36.2773 265.196 37.1523C265.172 38.0195 265.102 39.0234 264.985 40.1641C264.875 41.3047 264.696 42.5391 264.446 43.8672L262.196 43.6328C262.446 42.375 262.629 41.1914 262.746 40.082C262.871 38.9648 262.946 37.9727 262.969 37.1055C263 36.2383 263.016 35.2266 263.016 34.0703V33.8125H250.266V32.0078H265.242V34.0703ZM267.399 48.1562H248.25V46.3047H255.539V38.8984H257.742V46.3047H267.399V48.1562ZM279.845 30.6953C280.892 30.7031 281.829 30.9102 282.658 31.3164C283.493 31.7148 284.15 32.2734 284.626 32.9922C285.103 33.7031 285.345 34.5078 285.353 35.4062C285.345 36.3125 285.103 37.1211 284.626 37.832C284.15 38.543 283.493 39.0977 282.658 39.4961C281.829 39.8945 280.892 40.0938 279.845 40.0938C278.79 40.0938 277.841 39.8945 276.997 39.4961C276.161 39.0977 275.505 38.543 275.029 37.832C274.552 37.1211 274.314 36.3125 274.314 35.4062C274.314 34.5078 274.552 33.7031 275.029 32.9922C275.505 32.2734 276.161 31.7148 276.997 31.3164C277.841 30.9102 278.79 30.7031 279.845 30.6953ZM279.845 32.5703C279.204 32.5625 278.626 32.6758 278.111 32.9102C277.603 33.1445 277.204 33.4805 276.915 33.918C276.626 34.3477 276.486 34.8438 276.493 35.4062C276.486 35.9766 276.622 36.4805 276.904 36.918C277.193 37.3555 277.591 37.6953 278.099 37.9375C278.615 38.1719 279.197 38.2891 279.845 38.2891C280.486 38.2891 281.06 38.168 281.568 37.9258C282.075 37.6836 282.474 37.3477 282.763 36.918C283.052 36.4805 283.197 35.9766 283.197 35.4062C283.197 34.8438 283.052 34.3477 282.763 33.918C282.474 33.4805 282.072 33.1445 281.556 32.9102C281.048 32.6758 280.478 32.5625 279.845 32.5703ZM291.306 40.6797H289.079V29.9922H291.306V40.6797ZM291.306 46.9375H279.728V48.9531H292.009V50.7344H277.572V45.2734H289.103V43.4219H277.501V41.6406H291.306V46.9375ZM313.303 43.6328H304.771V50.9688H302.592V43.6328H294.154V41.8281H313.303V43.6328ZM311.498 33.0156H305.006C305.013 33.8672 305.342 34.6797 305.99 35.4531C306.646 36.2188 307.525 36.8711 308.627 37.4102C309.728 37.9414 310.935 38.2969 312.248 38.4766L311.428 40.2344C310.279 40.0547 309.197 39.7539 308.181 39.332C307.166 38.9023 306.275 38.3711 305.51 37.7383C304.744 37.0977 304.15 36.3828 303.728 35.5938C303.095 36.7812 302.092 37.7852 300.717 38.6055C299.349 39.418 297.803 39.9609 296.076 40.2344L295.232 38.4766C296.529 38.2969 297.724 37.9414 298.818 37.4102C299.92 36.8711 300.799 36.2188 301.455 35.4531C302.111 34.6797 302.451 33.8672 302.474 33.0156H295.935V31.2344H311.498V33.0156ZM320.369 30.6953C321.416 30.7031 322.354 30.9102 323.182 31.3164C324.018 31.7148 324.674 32.2734 325.151 32.9922C325.627 33.7031 325.869 34.5078 325.877 35.4062C325.869 36.3125 325.627 37.1211 325.151 37.832C324.674 38.543 324.018 39.0977 323.182 39.4961C322.354 39.8945 321.416 40.0938 320.369 40.0938C319.315 40.0938 318.365 39.8945 317.522 39.4961C316.686 39.0977 316.03 38.543 315.553 37.832C315.076 37.1211 314.838 36.3125 314.838 35.4062C314.838 34.5078 315.076 33.7031 315.553 32.9922C316.03 32.2734 316.686 31.7148 317.522 31.3164C318.365 30.9102 319.315 30.7031 320.369 30.6953ZM320.369 32.5703C319.729 32.5625 319.151 32.6758 318.635 32.9102C318.127 33.1445 317.729 33.4805 317.44 33.918C317.151 34.3477 317.01 34.8438 317.018 35.4062C317.01 35.9766 317.147 36.4805 317.428 36.918C317.717 37.3555 318.115 37.6953 318.623 37.9375C319.139 38.1719 319.721 38.2891 320.369 38.2891C321.01 38.2891 321.584 38.168 322.092 37.9258C322.6 37.6836 322.998 37.3477 323.287 36.918C323.576 36.4805 323.721 35.9766 323.721 35.4062C323.721 34.8438 323.576 34.3477 323.287 33.918C322.998 33.4805 322.596 33.1445 322.08 32.9102C321.572 32.6758 321.002 32.5625 320.369 32.5703ZM331.83 40.6797H329.604V29.9922H331.83V40.6797ZM331.83 46.9375H320.252V48.9531H332.533V50.7344H318.096V45.2734H329.627V43.4219H318.026V41.6406H331.83V46.9375ZM353.053 50.9922H350.921V40.2578H348.905V49.9609H346.842V30.3906H348.905V38.4297H350.921V29.9922H353.053V50.9922ZM338.991 36.5781C338.991 37.8203 339.089 39.0312 339.284 40.2109C339.487 41.3828 339.878 42.4375 340.456 43.375C341.057 42.4141 341.448 41.332 341.628 40.1289C341.807 38.9258 341.897 37.6016 341.897 36.1562V34.2578H340.749V32.4766H345.741V34.2578H343.842V36.1562C343.827 37.8828 344.022 39.4922 344.428 40.9844C344.835 42.4766 345.585 43.6562 346.678 44.5234L345.413 46.0703C344.257 45.1328 343.421 43.6836 342.905 41.7227C342.428 43.8008 341.608 45.3203 340.444 46.2812C339.28 45.3047 338.46 43.7734 337.983 41.6875C337.475 43.6719 336.647 45.1328 335.499 46.0703L334.21 44.5234C336.1 43.0312 337.046 40.2422 337.046 36.1562V34.2578H334.96V32.4766H340.139V34.2578H338.991V36.1562V36.5781ZM377.312 34.0703C377.312 35.25 377.297 36.2773 377.265 37.1523C377.242 38.0195 377.172 39.0234 377.054 40.1641C376.945 41.3047 376.765 42.5391 376.515 43.8672L374.265 43.6328C374.515 42.375 374.699 41.1914 374.816 40.082C374.941 38.9648 375.015 37.9727 375.039 37.1055C375.07 36.2383 375.086 35.2266 375.086 34.0703V33.8125H362.336V32.0078H377.312V34.0703ZM379.468 48.1562H360.32V46.3047H367.609V38.8984H369.812V46.3047H379.468V48.1562ZM391.668 41.6406H381.684V31.7734H391.668V41.6406ZM383.863 39.8594H389.465V33.5781H383.863V39.8594ZM397.996 45.0625H395.77V30.0156H397.996V45.0625ZM398.629 50.3594H384.262V43.6094H386.512V48.5312H398.629V50.3594ZM425.372 41.5234H416.888V43.5391C418.833 43.6484 420.341 44.0234 421.411 44.6641C422.489 45.2969 423.028 46.1562 423.028 47.2422C423.028 48.0312 422.739 48.7031 422.161 49.2578C421.583 49.8203 420.751 50.2422 419.665 50.5234C418.587 50.8125 417.294 50.9531 415.786 50.9453C414.263 50.9531 412.954 50.8125 411.86 50.5234C410.775 50.2422 409.943 49.8203 409.364 49.2578C408.786 48.7031 408.497 48.0312 408.497 47.2422C408.497 46.1562 409.036 45.2969 410.114 44.6641C411.193 44.0234 412.716 43.6484 414.685 43.5391V41.5234H406.224V39.7188H425.372V41.5234ZM415.786 45.2266C414.177 45.2266 412.935 45.4023 412.06 45.7539C411.185 46.1055 410.747 46.6016 410.747 47.2422C410.747 47.875 411.189 48.3672 412.071 48.7188C412.954 49.0703 414.193 49.2422 415.786 49.2344C416.833 49.2422 417.732 49.168 418.482 49.0117C419.239 48.8555 419.814 48.6289 420.204 48.332C420.603 48.0273 420.802 47.6641 420.802 47.2422C420.802 46.6016 420.36 46.1055 419.478 45.7539C418.603 45.4023 417.372 45.2266 415.786 45.2266ZM423.661 32.7344H417.286C417.388 33.3984 417.759 34.0234 418.4 34.6094C419.048 35.1953 419.892 35.6875 420.931 36.0859C421.978 36.4766 423.13 36.7344 424.388 36.8594L423.591 38.6172C422.38 38.4766 421.251 38.2188 420.204 37.8438C419.165 37.4609 418.263 36.9805 417.497 36.4023C416.739 35.8242 416.173 35.168 415.798 34.4336C415.415 35.168 414.841 35.8242 414.075 36.4023C413.318 36.9805 412.419 37.4609 411.38 37.8438C410.341 38.2188 409.216 38.4766 408.005 38.6172L407.232 36.8594C408.474 36.7344 409.61 36.4766 410.642 36.0859C411.681 35.6875 412.521 35.1953 413.161 34.6094C413.81 34.0234 414.185 33.3984 414.286 32.7344H407.982V30.9531H423.661V32.7344Z" fill="#444444" style="fill:#444444;fill:color(display-p3 0.2667 0.2667 0.2667);fill-opacity:1;"/>
</g>
<defs>
<filter id="filter0_d_2802_42848" x="0" y="0" width="463" height="84" filterUnits="userSpaceOnUse" color-interpolation-filters="sRGB">
<feFlood flood-opacity="0" result="BackgroundImageFix"/>
<feColorMatrix in="SourceAlpha" type="matrix" values="0 0 0 0 0 0 0 0 0 0 0 0 0 0 0 0 0 0 127 0" result="hardAlpha"/>
<feOffset dy="2"/>
<feGaussianBlur stdDeviation="4"/>
<feComposite in2="hardAlpha" operator="out"/>
<feColorMatrix type="matrix" values="0 0 0 0 0 0 0 0 0 0 0 0 0 0 0 0 0 0 0.12 0"/>
<feBlend mode="normal" in2="BackgroundImageFix" result="effect1_dropShadow_2802_42848"/>
<feBlend mode="normal" in="SourceGraphic" in2="effect1_dropShadow_2802_42848" result="shape"/>
</filter>
</defs>
</svg>
